<svg xmlns="http://www.w3.org/2000/svg" viewBox="0 0 720 450" role="img" aria-label="Bengaluru Blazers logo">
  <defs>
    <linearGradient id="bg" x1="0" y1="0" x2="1" y2="1"><stop offset="0" stop-color="#0b1118"/><stop offset="1" stop-color="#6e111b"/></linearGradient>
    <linearGradient id="shield" x1="0" y1="0" x2="1" y2="1"><stop offset="0" stop-color="#6e111b"/><stop offset="0.58" stop-color="#0b1118"/><stop offset="1" stop-color="#cf9d28"/></linearGradient>
    <filter id="shadow" x="-30%" y="-30%" width="160%" height="170%"><feDropShadow dx="0" dy="16" stdDeviation="12" flood-color="#000" flood-opacity="0.55"/></filter>
  </defs>
  <rect width="720" height="450" fill="url(#bg)"/>
  <g opacity="0.18" stroke="#fff" stroke-width="1"><path d="M0 345 C150 300 290 316 432 290 C545 270 630 282 720 250"/><path d="M0 378 H720"/><path d="M0 78 H720"/></g>
  <g filter="url(#shadow)">
    <path d="M360 36 C474 48 558 104 586 188 C574 294 486 374 360 414 C234 374 146 294 134 188 C162 104 246 48 360 36Z" fill="url(#shield)" stroke="#cf9d28" stroke-width="10"/>
    <path d="M360 68 C452 78 520 124 542 194 C530 274 462 336 360 370 C258 336 190 274 178 194 C200 124 268 78 360 68Z" fill="none" stroke="rgba(255,255,255,0.55)" stroke-width="5"/>
    <path d="M214 82 H506 Q526 82 536 102 L548 128 H172 L184 102 Q194 82 214 82Z" fill="#cf9d28" stroke="#111827" stroke-width="5"/>
    <text x="360" y="116" text-anchor="middle" font-family="Impact,Arial Black,sans-serif" font-size="42" letter-spacing="3" fill="#111827">BENGALURU</text>
    <g><path d="M276 285 C252 238 292 214 292 168 C330 202 338 232 322 264 C354 238 366 208 354 172 C416 220 430 270 390 314 C354 346 302 334 276 285Z" fill="#ff7a1a" opacity="0.72"/>
    <path d="M334 154 C396 122 470 150 500 214 C476 302 370 322 304 268 C252 226 278 178 334 154Z" fill="#cf9d28" stroke="#6e111b" stroke-width="9"/>
    <path d="M336 166 C390 146 442 162 480 214 C436 198 404 210 374 246 C346 280 306 260 292 226 C288 198 306 176 336 166Z" fill="#ff7a1a" opacity="0.78"/>
    <path d="M462 196 L540 214 L470 238Z" fill="#f8e7a4" stroke="#6e111b" stroke-width="6"/>
    <circle cx="430" cy="190" r="8" fill="#fff"/></g>
    <path d="M170 312 Q360 278 550 312 L528 372 Q360 344 192 372Z" fill="#6e111b" stroke="#cf9d28" stroke-width="8"/>
    <text x="360" y="356" text-anchor="middle" font-family="Impact,Arial Black,sans-serif" font-size="56" letter-spacing="2" fill="#fff" stroke="#111827" stroke-width="3" paint-order="stroke">BLAZERS</text>
  </g>
</svg>