<svg xmlns="http://www.w3.org/2000/svg" viewBox="0 0 720 450" role="img" aria-label="Kolkata Knightsmen logo">
  <defs>
    <linearGradient id="bg" x1="0" y1="0" x2="1" y2="1"><stop offset="0" stop-color="#090711"/><stop offset="1" stop-color="#28124f"/></linearGradient>
    <linearGradient id="shield" x1="0" y1="0" x2="1" y2="1"><stop offset="0" stop-color="#28124f"/><stop offset="0.58" stop-color="#090711"/><stop offset="1" stop-color="#d6a72e"/></linearGradient>
    <filter id="shadow" x="-30%" y="-30%" width="160%" height="170%"><feDropShadow dx="0" dy="16" stdDeviation="12" flood-color="#000" flood-opacity="0.55"/></filter>
  </defs>
  <rect width="720" height="450" fill="url(#bg)"/>
  <g opacity="0.18" stroke="#fff" stroke-width="1"><path d="M0 345 C150 300 290 316 432 290 C545 270 630 282 720 250"/><path d="M0 378 H720"/><path d="M0 78 H720"/></g>
  <g filter="url(#shadow)">
    <path d="M360 36 C474 48 558 104 586 188 C574 294 486 374 360 414 C234 374 146 294 134 188 C162 104 246 48 360 36Z" fill="url(#shield)" stroke="#d6a72e" stroke-width="10"/>
    <path d="M360 68 C452 78 520 124 542 194 C530 274 462 336 360 370 C258 336 190 274 178 194 C200 124 268 78 360 68Z" fill="none" stroke="rgba(255,255,255,0.55)" stroke-width="5"/>
    <path d="M214 82 H506 Q526 82 536 102 L548 128 H172 L184 102 Q194 82 214 82Z" fill="#d6a72e" stroke="#111827" stroke-width="5"/>
    <text x="360" y="116" text-anchor="middle" font-family="Impact,Arial Black,sans-serif" font-size="42" letter-spacing="3" fill="#111827">KOLKATA</text>
    <g>
    <path d="M334 144 C380 120 426 142 438 184 C454 242 410 288 350 286 C306 284 278 252 278 210 C278 176 298 154 334 144Z" fill="#8b5cf6" stroke="#d6a72e" stroke-width="8"/>
    <path d="M318 165 L420 170 L392 205 L426 226 L376 230 L386 274 L336 250 L300 272 L306 224 L272 202 L310 194Z" fill="#140a2a" opacity="0.95"/>
    <path d="M438 132 L492 90 L470 202" fill="none" stroke="#d6a72e" stroke-width="10" stroke-linecap="round"/>
    <path d="M444 136 L496 88" stroke="#f8f1c7" stroke-width="4" stroke-linecap="round"/></g>
    <path d="M170 312 Q360 278 550 312 L528 372 Q360 344 192 372Z" fill="#28124f" stroke="#d6a72e" stroke-width="8"/>
    <text x="360" y="356" text-anchor="middle" font-family="Impact,Arial Black,sans-serif" font-size="56" letter-spacing="2" fill="#fff" stroke="#111827" stroke-width="3" paint-order="stroke">KNIGHTSMEN</text>
  </g>
</svg>